<svg xmlns="http://www.w3.org/2000/svg" width="256" height="256" viewBox="0 0 192 192"><path d="M148 5.1c-3.4 2.9-15.1 13.4-20.8 18.8-7.9 7.4-8.4 7.6-13.9 5.4-9.5-3.6-31.1-1.8-42.3 3.6l-3.6 1.7-3.5-4.8c-1.9-2.7-3.9-5.5-4.5-6.1-1.4-1.6-8.8-11.8-11.8-16.2l-2.5-3.6-1.6 5.3c-1.2 4.1-6.1 23.5-8.9 35.8-.2.8-1 3.5-1.7 6s-1.3 5-1.5 5.7c-1 5.1-5.3 15.4-9.5 22.8C16 89.8 6.6 102.8 4.5 103.7c-2.3.8-1.8 2.2 2.3 7.1 8.4 10.2 9 12.4 3.7 14.6-1.9.8-3.5 1.9-3.5 2.4 0 .4 1.7 1.8 3.8 3 5.3 2.9 17.1 14.7 21.9 21.8 8.4 12.2 21.4 23.4 35.3 30 10.7 5.1 12.1 5.4 26.4 6.1 7.8.4 11.8 0 19.3-1.7 12-2.8 16.7-4.9 25.1-11.2 8.3-6.3 13.3-11.6 22.4-23.8 7.1-9.6 14.6-17.9 16.1-18 .4 0 2-.8 3.4-1.7l2.6-1.7-2.4-.6c-1.3-.3-2.5-1.4-2.7-2.4-.5-2.6 5.5-14.4 9.5-18.6 3.2-3.4 3.2-3.6 1.4-5-5.1-4.1-6.7-5.7-7.8-7.5-.7-1.1-3.2-5.3-5.7-9.4-3.7-6-10.7-22.4-15.6-36.1-.9-2.5-2.9-12.8-3.5-18.5-.4-3.5-1.3-9.7-2-13.4C152.3 6 151.7 3 151.1 3c-.3.1-1.7 1-3.1 2.1"/></svg>