<?xml version="1.0" standalone="no"?>
<!DOCTYPE svg PUBLIC "-//W3C//DTD SVG 20010904//EN"
 "http://www.w3.org/TR/2001/REC-SVG-20010904/DTD/svg10.dtd">
<svg version="1.0" xmlns="http://www.w3.org/2000/svg"
 width="192.000000pt" height="192.000000pt" viewBox="0 0 192.000000 192.000000"
 preserveAspectRatio="xMidYMid meet">
<metadata>
Created by potrace 1.14, written by Peter Selinger 2001-2017
</metadata>
<g transform="translate(0.000000,192.000000) scale(0.100000,-0.100000)"
fill="#000000" stroke="none">
<path d="M1480 1869 c-34 -29 -151 -134 -208 -188 -79 -74 -84 -76 -139 -54
-95 36 -311 18 -423 -36 l-36 -17 -35 48 c-19 27 -39 55 -45 61 -14 16 -88
118 -118 162 l-25 36 -16 -53 c-12 -41 -61 -235 -89 -358 -2 -8 -10 -35 -17
-60 -7 -25 -13 -50 -15 -57 -10 -51 -53 -154 -95 -228 -59 -103 -153 -233
-174 -242 -23 -8 -18 -22 23 -71 84 -102 90 -124 37 -146 -19 -8 -35 -19 -35
-24 0 -4 17 -18 38 -30 53 -29 171 -147 219 -218 84 -122 214 -234 353 -300
107 -51 121 -54 264 -61 78 -4 118 0 193 17 120 28 167 49 251 112 83 63 133
116 224 238 71 96 146 179 161 180 4 0 20 8 34 17 l26 17 -24 6 c-13 3 -25 14
-27 24 -5 26 55 144 95 186 32 34 32 36 14 50 -51 41 -67 57 -78 75 -7 11 -32
53 -57 94 -37 60 -107 224 -156 361 -9 25 -29 128 -35 185 -4 35 -13 97 -20
134 -22 131 -28 161 -34 161 -3 -1 -17 -10 -31 -21z"/>
</g>
</svg>
