<?xml version="1.0" standalone="no"?>
<!DOCTYPE svg PUBLIC "-//W3C//DTD SVG 20010904//EN"
 "http://www.w3.org/TR/2001/REC-SVG-20010904/DTD/svg10.dtd">
<svg version="1.0" xmlns="http://www.w3.org/2000/svg"
 width="500.000000pt" height="500.000000pt" viewBox="0 0 500.000000 500.000000"
 preserveAspectRatio="xMidYMid meet">
<metadata>
Created by potrace 1.11, written by Peter Selinger 2001-2013
</metadata>
<g transform="translate(0.000000,500.000000) scale(0.100000,-0.100000)"
fill="#000000" stroke="none">
<path d="M3875 4883 c-39 -31 -88 -73 -110 -93 -22 -20 -89 -81 -150 -136 -60
-54 -112 -101 -115 -104 -8 -8 -107 -98 -195 -176 -159 -142 -210 -184 -226
-184 -9 0 -41 11 -72 25 -62 27 -149 51 -219 59 -27 3 -67 8 -90 11 -93 12
-208 11 -313 -1 -199 -23 -486 -103 -576 -160 -21 -13 -42 -24 -47 -24 -9 0
-15 8 -361 478 -123 166 -227 302 -231 302 -12 0 -24 -42 -65 -215 -238 -1002
-340 -1370 -436 -1559 -75 -148 -280 -486 -339 -559 -5 -6 -45 -57 -88 -112
-86 -108 -112 -135 -155 -157 l-29 -14 38 -50 c20 -27 65 -81 99 -120 35 -40
76 -91 92 -115 46 -67 95 -169 89 -185 -3 -8 -51 -35 -106 -61 -55 -25 -100
-52 -100 -59 0 -6 21 -24 48 -40 143 -83 196 -126 368 -298 118 -118 199 -209
234 -261 101 -152 165 -230 290 -356 219 -221 369 -329 655 -469 202 -100 265
-123 392 -145 124 -21 185 -25 374 -25 218 0 257 5 499 65 189 47 266 75 373
134 163 91 274 178 442 346 158 158 244 260 405 485 97 135 232 294 295 347
25 21 82 58 127 83 45 25 83 50 85 57 3 7 -18 16 -56 24 -33 6 -65 17 -70 23
-23 29 76 264 173 410 30 44 79 106 110 137 31 31 56 62 56 67 0 6 -32 30 -70
52 -77 45 -111 83 -221 247 -182 270 -262 439 -464 983 -64 172 -76 214 -99
360 -32 198 -53 331 -61 385 -3 22 -17 110 -31 195 -13 85 -34 218 -45 295
-11 77 -24 146 -28 153 -5 8 -28 -5 -76 -45z"/>
</g>
</svg>
